<svg height="2992pt" preserveAspectRatio="xMidYMid meet" viewBox="0 0 2144 2992" width="2144pt" xmlns="http://www.w3.org/2000/svg"><g transform="matrix(.1 0 0 -.1 0 2992)"><path d="m10860 17641c0-15 12-19 80-26l65-6-39 21c-41 21-106 27-106 11z"/><path d="m10341 17625c-18-8-53-15-76-15-47 0-75-8-75-20 0-14 59-20 88-9 15 6 34 12 42 13 53 7 90 20 87 30-6 17-28 17-66 1z"/><path d="m10455 17630c-3-5 1-10 10-10s13 5 10 10c-3 6-8 10-10 10s-7-4-10-10z"/><path d="m10080 17558c-18-8-21-12-9-15 8-2 28 3 45 12 22 11 25 15 9 14-11 0-31-5-45-11z"/><path d="m10520 17533c-30-2-64-8-75-13-11-6-61-19-110-29-50-11-115-30-145-44-30-13-63-27-73-30-10-4-25-20-35-37-9-16-36-39-58-49-23-11-54-33-70-49-42-42-104-78-144-85-91-16-99-19-119-53-11-19-25-34-30-34-6 0-8-6-5-14s-17-33-50-62c-31-26-56-53-56-60 0-16-67-74-86-74-13 0-12 4 3 25 10 13 24 25 30 25 17 0 46 46 41 62-3 8-30-13-67-52-46-49-60-71-58-88 7-36-27-48-55-20-12 12-23 17-25 11-2-5-19-34-38-64-21-33-30-56-23-58 12-4 52 37 60 61 4 10 10 10 32 0 15-6 38-12 51-12 15 0 25-6 25-15 0-21-48-49-81-47-22 2-35-7-62-40-19-24-44-62-56-85-11-23-25-44-31-48-5-3-10-18-10-31 0-16-12-36-30-52l-30-26v-236c0-234 0-235 24-257l23-23 9 53c5 28 9 72 10 97 3 53 18 137 27 147 4 3 13 0 22-7 19-16 19-12-1 35-9 21-13 49-9 62 5 21 10 24 30 19 27-7 32 3 13 22-6 6-8 15-4 19s11 1 16-7c7-12 10-11 15 5 22 68 55 143 76 175 9 14 38 66 64 115 25 50 62 106 80 125s36 44 39 55c8 25 137 165 153 165 6 0 9-9 6-20s-1-20 5-20c16 0 72 72 72 92 0 9 9 19 20 23 11 3 25 18 32 32 9 18 28 31 58 41 25 8 57 21 72 28 14 8 35 14 46 14s33 6 49 14c54 27 98 39 135 37 20-1 40 3 43 9 14 22 56 31 97 19 38-10 42-9 72 20 27 26 43 31 131 44 115 16 255 8 306-18 17-9 65-19 105-22 41-3 77-10 80-14 3-5 17-9 31-9 21 0 23 3 14 14-7 8-27 18-44 21-62 12-68 16-62 34 8 25-23 48-76 55-41 6-48 10-52 34-7 39-1 44 57 41 28-1 53 2 56 7 11 20-291 35-327 16-12-7-37-12-55-12-33 0-33 0-9 13 33 17 39 37 9 35-12-1-48-3-78-5zm408-170c2-8-5-13-17-13s-21 6-21 16c0 18 31 15 38-3z"/><path d="m11000 17530c0-5 12-10 26-10s23 4 19 10c-3 6-15 10-26 10-10 0-19-4-19-10z"/><path d="m11102 17532c-65-5-48-27 21-27 31 0 57 3 57 7 0 14-36 23-78 20z"/><path d="m9955 17489c-11-17 1-21 15-4 8 9 8 15 2 15s-14-5-17-11z"/><path d="m11220 17469c0-5 11-9 25-9s25 2 25 4-11 6-25 8c-14 3-25 1-25-3z"/><path d="m10890 17440c0-5 6-10 14-10s18 5 21 10c3 6-3 10-14 10-12 0-21-4-21-10z"/><path d="m10004 17406c-22-17-11-35 13-20 19 12 29 34 16 34-5 0-18-6-29-14z"/><path d="m11054 17359c-11-18 11-30 69-38 30-4 67-15 81-25 15-9 31-14 36-11 32 20-17 52-107 71-37 8-69 14-70 14s-5-5-9-11z"/><path d="m9910 17345c-7-9-10-18-7-22 8-7 37 15 37 28 0 14-16 11-30-6z"/><path d="m11590 17341c0-5 13-14 30-19 16-6 46-23 65-38 39-29 39-29 25 12-8 22-21 32-50 42-47 14-70 15-70 3z"/><path d="m11285 17290c3-5 13-10 21-10s14 5 14 10c0 6-9 10-21 10-11 0-17-4-14-10z"/><path d="m11177 17244c-11-12 3-24 28-24 13 0 27-4 30-10 3-5 16-10 27-10s39-16 62-35c23-20 66-58 98-84 31-27 67-52 80-56 12-4 31-14 41-23 13-12 20-13 29-4 8 8 5 14-15 21-15 6-27 16-27 24 0 17 75 10 91-9 6-8 17-14 25-14 7 0 19-8 26-19 7-10 39-33 70-51 32-17 61-36 64-41s10-9 15-9c25 0-75 84-196 164-52 35-287 146-308 146-7 0-36 9-65 20-57 22-65 23-75 14z"/><path d="m11897 17229c12-12 25-20 28-17s-7 13-22 23l-28 17z"/><path d="m10593 17210c-23-5-51-14-62-19-11-6-28-11-38-11-10-1-36-9-58-20-53-26-65-25-65 5 0 17-5 25-18 25-10 0-23 5-30 12-14 14-28 3-34-26-2-13-19-25-48-36-58-20-119-60-163-105-19-19-40-35-47-35s-44-29-81-65-73-65-81-65-20-11-27-24-24-29-37-36c-21-12-114-120-114-134 0-15 21-2 67 44 49 48 73 61 73 40 0-6-9-18-20-27-11-10-20-23-20-30 0-6-16-29-36-50-42-44-80-106-89-145-10-40 8-34 33 10 11 20 31 48 44 62s36 43 53 65c45 61 185 194 225 215 19 10 46 30 60 45s41 35 61 45c30 16 35 23 32 47-6 40 39 83 68 65 27-17 83-1 283 80 59 24 173 38 162 20-4-7-17-12-29-12-25 0-99-40-104-56-3-10 26-10 197-1 30 2 80-1 110-5 30-5 67-11 82-13s42-12 60-21c18-10 45-17 60-16s29-2 33-8c3-5 24-10 46-10 50 0 83-30 76-69-5-23-1-28 36-45 67-29 101-48 122-66 42-36 128-81 143-75 23 9-19 48-97 92-37 20-69 41-73 47-10 15 0 26 23 26 28 0 23 26-8 43-16 8-48 26-73 39-75 41-83 46-128 67-23 12-49 21-58 21-8 0-34 10-57 22-69 35-74 37-96 31-12-3-27-1-34 5-6 5-36 13-65 17-30 4-56 13-61 22-12 23-46 12-45-15 0-12-5-22-12-22-12 0-21 8-52 45-14 16-26 17-89 5z"/><path d="m10920 17206c0-12 11-16 48-16 26 0 65-3 87-7 52-8 39 7-17 19-91 20-118 21-118 4z"/><path d="m11750 17151c0-11 49-51 62-51 5 0 0 14-12 30-20 28-50 41-50 21z"/><path d="m9548 17119c-55-45-46-52 22-17 33 16 60 34 60 39 0 19-47 7-82-22z"/><path d="m10010 17105c-14-8-34-14-46-15-22 0-168-119-178-145-12-31 25-13 96 47 40 35 78 68 84 73 6 6 30 17 53 25 22 7 41 17 41 22 0 12-22 9-50-7z"/><path d="m11960 17057c0-18 28-42 37-33 9 8-9 38-25 44-7 2-12-3-12-11z"/><path d="m10420 17010c0-5 9-10 20-10s20 5 20 10c0 6-9 10-20 10s-20-4-20-10z"/><path d="m11080 16990c-18-11-15-13 31-27 47-13 74 0 45 22-22 17-54 19-76 5z"/><path d="m9369 16964c-12-14-11-16 5-13 11 2 21 10 24 17 5 17-13 15-29-4z"/><path d="m10595 16931c-3-5-20-13-38-17-17-3-43-15-56-25-13-11-32-19-42-19-23 0-25-18-4-26 29-12 149 18 170 42 11 12 29 24 39 26 11 2 21 9 24 16 4 14-83 18-93 3z"/><path d="m11948 16926c-15-11-14-13 1-31 26-31 122-115 132-115 5 0 9 7 9 15s-4 15-9 15-26 25-47 56c-44 64-63 77-86 60z"/><path d="m9690 16915c-8-9-8-15-2-15 12 0 26 19 19 26-2 2-10-2-17-11z"/><path d="m11460 16906c0-2 7-6 15-10 8-3 15-1 15 4 0 6-7 10-15 10s-15-2-15-4z"/><path d="m9703 16848c-12-13-28-40-37-60-8-21-26-43-40-50-30-13-34-28-8-28 32 0 132 117 132 155 0 13-29 3-47-17z"/><path d="m11860 16838c0-35 14-58 37-58 29 0 75-47 118-120 44-75 55-110 35-110-5 0-27 30-50 68-48 80-90 132-90 113 0-7 15-34 34-60 19-25 42-65 51-89 10-23 21-42 26-42s9-7 9-15c0-20 20-19 36 3 13 16 17 14 54-27 23-25 40-54 40-67 0-15 6-24 15-24 26 0 26-1-73 195-46 92-87 145-152 197-94 77-90 75-90 36z"/><path d="m9241 16834c-11-15-21-31-21-36 0-6-9-21-20-35s-20-33-20-42c1-21 29 15 66 82 29 55 27 72-5 31z"/><path d="m11630 16825c24-25 50-33 50-16 0 13-41 41-59 41-10 0-8-7 9-25z"/><path d="m10675 16800c-3-5 3-10 14-10s23 5 26 10c3 6-3 10-14 10s-23-4-26-10z"/><path d="m9578 16789c-10-5-18-14-18-19 0-17 15-11 28 10 14 23 13 23-10 9z"/><path d="m11010 16780c0-5 7-10 15-10s15 5 15 10c0 6-7 10-15 10s-15-4-15-10z"/><path d="m10805 16766c-18-13-18-15-3-21 28-11 83-1 83 15 0 21-55 25-80 6z"/><path d="m11390 16750c0-5 5-10 11-10 5 0 7 5 4 10-3 6-8 10-11 10-2 0-4-4-4-10z"/><path d="m11767 16732c34-53 61-82 76-82 13 0 31-32 82-145 10-22 37-65 60-95 26-34 45-70 49-95 7-42 34-105 51-117 23-17 28 14 10 66-20 60-16 77 16 58 11-7 24-10 29-7 6 4 10-9 10-28s9-46 20-60 20-37 20-50c0-14 4-28 9-32 17-10 22 13 11 57-6 24-15 59-19 78-9 38-58 130-70 130-3 0-12 14-18 30-6 17-18 30-27 30-20 0-21-17-1-36 8-9 15-22 15-30 0-23-28-16-36 9-4 12-20 50-35 85-16 34-29 65-29 68 0 12-154 150-180 160-15 7-31 17-34 23-4 6-12 11-18 11-5 0-2-13 9-28z"/><path d="m9501 16679c-38-56-50-89-35-89s93 115 94 138c0 26-20 9-59-49z"/><path d="m11492 16708c7-19 38-22 38-4 0 10-9 16-21 16s-19-5-17-12z"/><path d="m11577 16678c-17-29-17-33-3-44 9-6 16-17 16-24 0-19 48-60 71-60 10 0 19 6 19 14 0 20-37 64-60 71-28 9-26 45 1 45 18 0 19 2 9 15-19 23-33 18-53-17z"/><path d="m9585 16676c-6-7-28-38-51-67-22-30-60-97-83-149-24-52-54-104-67-115-22-18-24-25-18-68 8-56 26-57 35-2 7 44 39 75 75 75 13 0 24 4 24 9s23 38 50 72c47 58 61 89 42 89-5 0-17-9-27-20-21-24-34-25-41-6-3 8 13 38 35 66 23 29 41 62 41 75s3 30 6 39c8 20-7 21-21 2z"/><path d="m11270 16670c0-5 5-10 11-10 5 0 7 5 4 10-3 6-8 10-11 10-2 0-4-4-4-10z"/><path d="m10227 16653c-13-12-7-23 13-23 11 0 20 7 20 15 0 15-21 21-33 8z"/><path d="m10465 16650c-3-5 3-10 14-10s23 5 26 10c3 6-3 10-14 10s-23-4-26-10z"/><path d="m9138 16643c-10-2-18-13-18-24 0-25 20-25 27 1 6 23 14 25 32 8 11-11 13-10 9 2-5 16-22 21-50 13z"/><path d="m11056 16642c-3-6-1-14 5-17 15-10 25 3 12 16-7 7-13 7-17 1z"/><path d="m10335 16620c-3-5 1-10 9-10s18 5 21 10c3 6-1 10-9 10s-18-4-21-10z"/><path d="m11560 16600c0-5 5-10 10-10 6 0 10 5 10 10 0 6-4 10-10 10-5 0-10-4-10-10z"/><path d="m9156 16584c-17-17-22-84-6-84 11 0 40 53 40 74 0 23-17 28-34 10z"/><path d="m11780 16530c0-5 5-10 11-10 5 0 7 5 4 10-3 6-8 10-11 10-2 0-4-4-4-10z"/><path d="m9733 16503c-3-10-19-34-35-54-33-43-34-49-10-49 27 1 49 22 54 55 3 17 9 38 13 48s3 17-4 17-14-8-18-17z"/><path d="m11550 16490c0-5 5-10 10-10 6 0 10 5 10 10 0 6-4 10-10 10-5 0-10-4-10-10z"/><path d="m10230 16363c-30-29-48-53-40-52 26 1 105 65 108 87 5 31-6 26-68-35z"/><path d="m9642 16403c-7-3-17-13-23-24-9-18-7-19 15-13 16 4 26 2 26-5 0-6 4-11 9-11 9 0 3 48-8 54-3 2-12 1-19-1z"/><path d="m11655 16400c-4-6-3-14 0-20 9-15 35-12 35 4 0 17-27 29-35 16z"/><path d="m11940 16340c0-3 7-23 14-45 13-38 46-62 46-33-1 12-59 89-60 78z"/><path d="m9690 16316c0-7-7-19-16-26-19-16-41-68-46-107-4-37 23-38 33-2 3 15 18 43 31 63 16 23 23 45 20 61-5 26-22 35-22 11z"/><path d="m12270 16295c0-16 27-32 37-21 7 7-16 36-28 36-5 0-9-7-9-15z"/><path d="m10005 16236c-18-37-14-56 11-56 15 0 34 38 34 71 0 31-28 22-45-15z"/><path d="m9572 16238c-7-7-12-23-12-37 0-15-7-35-15-45-16-21-21-116-7-116 11 0 32 45 32 68 0 10 6 24 12 30 10 10 10 17 0 32-16 26-15 40 5 62 18 20 4 25-15 6z"/><path d="m10296 16187c-24-36-47-110-38-119 5-5 16 11 26 36 9 24 24 50 32 56 16 14 19 50 4 50-5 0-16-10-24-23z"/><path d="m12390 16191c0-6 5-13 10-16 6-3 10 1 10 9 0 9-4 16-10 16-5 0-10-4-10-9z"/><path d="m12120 16148c0-15 5-30 10-33 13-8 13 25 0 45-8 12-10 9-10-12z"/><path d="m11780 16126c0-15 7-38 16-52 21-31 21-114-1-130-10-7-15-27-15-57 0-25-8-59-17-76-19-32-18-36 12-44 16-5 24 3 44 45 28 59 35 131 20 190-5 24-15 62-20 85-13 52-39 79-39 39z"/><path d="m11946 16142c-3-6-1-14 5-17 15-10 25 3 12 16-7 7-13 7-17 1z"/><path d="m12066 16112c-8-35 16-88 34-77 15 9 12 41-4 55-8 6-16 21-18 33-3 18-5 16-12-11z"/><path d="m9330 16115c0-8 7-15 15-15s15 7 15 15-7 15-15 15-15-7-15-15z"/><path d="m12007 16117c-3-7-4-64-3-126 1-80-2-115-10-118-17-6-26-29-34-88-5-27-11-59-14-70s-2-26 3-34c17-25 31 0 31 55 0 61 13 94 35 94 9 0 15 10 15 25 0 14 8 29 20 35 18 10 19 17 14 83-4 40-13 81-20 92-8 11-14 27-14 37 0 21-16 32-23 15z"/><path d="m11954 16085c-8-30-1-40 21-31 10 3 15 15 13 28-4 31-26 34-34 3z"/><path d="m12376 16102c-5-9 15-77 27-88 4-4 7 11 7 33 0 38-22 74-34 55z"/><path d="m9993 16077c-35-23-43-47-18-47 16 0 65 46 65 61 0 14-12 10-47-14z"/><path d="m9272 16030c-7-18-7-32-1-35 15-10 29 5 29 30 0 36-17 39-28 5z"/><path d="m9337 16043c-11-11-8-153 3-153 6 0 10 33 10 80 0 80-1 86-13 73z"/><path d="m12224 16037c-6-18 13-67 26-67 17 0 23 30 12 56-13 26-30 31-38 11z"/><path d="m11650 16030c0-5 5-10 10-10 6 0 10 5 10 10 0 6-4 10-10 10-5 0-10-4-10-10z"/><path d="m9510 15960c0-5 4-10 9-10 6 0 13 5 16 10 3 6-1 10-9 10-9 0-16-4-16-10z"/><path d="m9560 15875c0-25 14-34 24-16 8 12-3 41-15 41-5 0-9-11-9-25z"/><path d="m9280 15870c0-11 5-20 10-20 6 0 10 9 10 20s-4 20-10 20c-5 0-10-9-10-20z"/><path d="m12035 15799c-4-11-4-23-2-26 9-8 27 7 27 22 0 23-18 27-25 4z"/><path d="m12560 15765c0-9 5-15 11-13s11 8 11 13-5 11-11 13-11-4-11-13z"/><path d="m9141 15704c-12-68-9-86 11-66 14 14 24 132 11 132-5 0-15-30-22-66z"/><path d="m12064 15760c-33-13-40-31-19-47 27-19 32-17 44 18 15 45 15 45-25 29z"/><path d="m11715 15739c-4-6-5-13-2-16 7-7 27 6 27 18s-17 12-25-2z"/><path d="m11787 15743c-4-3-7-11-7-17s5-5 12 2c6 6 9 14 7 17-3 3-9 2-12-2z"/><path d="m12600 15655c0-8 5-15 10-15 6 0 10 7 10 15s-4 15-10 15c-5 0-10-7-10-15z"/><path d="m11917 15623c-4-3-7-14-7-23s-6-22-12-28c-7-7-14-33-14-58-1-25-7-51-13-57-14-14-15-77-1-77 6 0 10 10 10 23 1 12 7 33 15 47s14 39 15 56c0 18 7 45 15 60 23 44 17 83-8 57z"/><path d="m12301 15602c-6-11-11-42-11-69 1-43 2-46 15-30 18 25 30 96 17 109-7 7-14 3-21-10z"/><path d="m9260 15540c0-12-5-30-11-41-8-16-7-25 4-37 8-9 17-26 18-36 2-11 10-21 18-24 11-4 12 3 7 29-3 19-9 53-12 77-7 45-24 68-24 32z"/><path d="m12446 15551c-4-7-5-15-2-18 9-9 19 4 14 18-4 11-6 11-12 0z"/><path d="m11732 15500c-6-11-12-26-12-34 0-7-7-19-15-26-15-13-21-50-7-50 23 1 44 32 60 93 12 42-4 52-26 17z"/><path d="m12532 15501c2-14 9-26 16-29 17-5 15 10-3 34-15 18-15 18-13-5z"/><path d="m9207 15447c-5-14 18-141 29-158 3-5 10-37 15-71 6-35 19-78 30-96 10-18 19-39 19-46 0-17 47-60 53-49 6 9-15 80-35 116-13 24-53 176-63 237-11 69-35 102-48 67z"/><path d="m12415 15411c-3-5-1-12 5-16 5-3 10 1 10 9 0 18-6 21-15 7z"/><path d="m11680 15326c-14-13-40-49-59-80-18-31-39-56-46-56-13 0-35-41-35-65 0-48 88 36 150 141 22 38 40 72 40 76 0 16-26 7-50-16z"/><path d="m11974 15147c-12-17-25-45-28-61l-7-29 24 29c27 33 47 68 47 83 0 20-15 11-36-22z"/><path d="m12364 15125c-9-14-14-28-11-31 7-7 47 32 47 46 0 18-19 10-36-15z"/><path d="m12557 15133c-4-3-7-11-7-17s5-5 12 2c6 6 9 14 7 17-3 3-9 2-12-2z"/><path d="m11127 15114c-3-4-21-10-39-14-30-8-31-9-10-15 25-8 27-16 10-48-19-32-31-38-48-23-9 8-55 16-115 20-55 4-134 9-175 12-69 5-74 4-56-10 11-9 27-16 35-16 9 0 25-7 36-16 17-13 18-16 5-24-24-15-1-28 60-34 30-2 73-8 94-12 51-9 225 32 291 69 11 6 43 14 70 17 40 4 51 9 53 25 2 18-2 20-45 17-26-1-66-5-87-9-36-5-39-4-33 16 7 29-27 64-46 45z"/><path d="m11491 15086c-22-27-70-40-97-27-20 9-25 9-21-1 2-7-2-21-11-31-24-27-8-31 45-11 52 19 113 59 113 75 0 13-16 11-29-5z"/><path d="m12325 15070c-3-5-1-10 4-10 6 0 11 5 11 10 0 6-2 10-4 10-3 0-8-4-11-10z"/><path d="m10570 15050c0-6 11-15 24-20s27-14 31-20c3-5 11-8 16-5 14 9 11 25-5 25-7 0-19 7-26 15-14 17-40 20-40 5z"/><path d="m11916 15000c-36-61-139-141-157-123-9 9 34 62 65 80 10 6 16 18 14 29-3 15-19 4-83-58-43-43-83-78-87-78-5 0-31-16-59-35s-60-35-71-35c-31 0-58-19-58-40 0-29 27-25 90 14 79 48 179 61 125 16-17-14-20-30-5-30 19 0 109 65 124 90 8 14 38 50 67 80 61 66 79 90 79 107 0 24-25 13-44-17z"/><path d="m9652 15008c6-18 28-21 28-4 0 9-7 16-16 16s-14-5-12-12z"/><path d="m10510 15011c0-6 5-13 10-16 6-3 10 1 10 9 0 9-4 16-10 16-5 0-10-4-10-9z"/><path d="m9500 14980c6-11 15-18 21-14s6 11-2 20c-17 21-31 17-19-6z"/><path d="m10698 14983c6-2 18-2 25 0 6 3 1 5-13 5s-19-2-12-5z"/><path d="m11280 14975c-20-24-6-28 15-5 10 11 13 20 8 20-6 0-16-7-23-15z"/><path d="m10560 14944c0-14 23-45 41-54 11-6 41-13 66-16 25-2 53-10 61-16 22-19 159-21 166-3 7 20-10 28-48 21-20-4-50 0-77 10-24 9-58 16-76 15-18 0-51 11-75 24-43 25-58 30-58 19z"/><path d="m12255 14865c-14-13-25-31-25-40 0-13 7-11 33 10 17 15 36 34 40 41 14 24-22 16-48-11z"/><path d="m10117 14833c15-21 29-40 30-42 2-3 9 1 15 7 9 9 7 16-9 27-12 9-29 22-37 30-27 28-27 15 1-22z"/><path d="m11065 14861c-7-12 12-24 25-16 11 7 4 25-10 25-5 0-11-4-15-9z"/><path d="m9450 14849c0-6 9-13 20-16 10-3 33-29 50-59 29-52 74-93 87-80s-65 121-103 143c-45 25-54 27-54 12z"/><path d="m10980 14840c0-5 9-10 20-10s20 5 20 10c0 6-9 10-20 10s-20-4-20-10z"/><path d="m11433 14826c-15-13-49-33-75-44-60-26-64-47-8-39 30 4 54 17 88 48 26 24 49 47 50 51 7 17-28 7-55-16z"/><path d="m12379 14838c-20-17-69-84-69-95 0-10-120-157-159-194-15-15-41-34-57-42-34-17-60-44-51-53 11-11 95 34 113 61 11 15 32 39 48 53 16 15 48 52 73 82 24 30 59 72 76 93 31 37 63 107 48 107-4 0-14-6-22-12z"/><path d="m9980 14815c0-13 74-73 124-101 11-6 23-18 28-27 4-9 12-25 16-34 5-10 23-25 40-34 84-43 142-84 142-101 0-23 26-34 44-19 11 9 15 7 19-9 3-13 13-20 30-20 15 0 32-9 41-21 11-16 20-19 38-13 12 4 41 6 63 5l40-3-24 26c-14 14-32 26-40 26-34 0-180 59-232 93-29 21-57 37-62 37-4 0-29 23-56 50-27 28-51 50-55 50s-36 25-71 55c-68 57-85 65-85 40z"/><path d="m9712 14758c6-16 36-34 44-25 9 9-15 37-33 37-8 0-13-5-11-12z"/><path d="m11254 14699c-9-15 11-33 30-26 9 4 13 13 10 22-7 17-30 20-40 4z"/><path d="m9413 14664c-129-97-331-323-549-614-515-689-936-1345-1074-1675-343-820-394-1883-134-2770 51-172 165-489 224-620 5-11 34-83 65-160s60-149 65-160c145-349 240-701 284-1050 38-292 41-526 15-915-26-391-129-883-243-1157-100-242-260-540-566-1058-97-164-200-352-200-366 0-5 166-9 419-9 373 0 420 2 425 16 3 9 6 197 6 419v402l67 94c214 302 441 668 843 1359 519 895 791 1513 904 2060 40 191 44 216 60 345 42 333 59 659 46 896-35 638-109 944-399 1647-295 713-441 1325-441 1842 0 445 80 921 225 1352 58 172 51 192-42 122z"/><path d="m10286 14675c-3-8 0-15 5-15 6 0 25-15 43-34 33-36 108-66 163-66 19 0 43-5 54-11 12-6 28-8 37-4 13 5 12 8-6 21-24 16-104 41-139 42-24 1-104 48-116 68-11 19-33 18-41-1z"/><path d="m9670 14633c1-14 54-70 78-82 43-23 58 12 20 45-44 37-99 58-98 37z"/><path d="m11145 14580c-3-5-2-10 4-10 5 0 13 5 16 10 3 6 2 10-4 10-5 0-13-4-16-10z"/><path d="m10625 14551c-7-13 3-18 55-25l45-7-44 21c-50 23-48 23-56 11z"/><path d="m9970 14532c0-15 46-52 63-52 25 0 21 14-13 38-30 23-50 28-50 14z"/><path d="m11950 14505c-25-19-49-35-53-35-5 0-20-9-34-20s-33-20-42-20-30-17-47-37c-31-37-33-37-51-20-11 9-24 17-30 17-19 0-64-42-59-55 5-14-28-48-56-58-19-7-25-27-8-27 20 0 80 29 112 54 18 13 53 32 78 42 25 9 59 29 75 44 30 26 94 69 154 102 31 17 43 48 19 48-7 0-33-16-58-35z"/><path d="m10840 14521c-60-7-58-15 8-26 28-4 48-3 57 5 14 12 12 32-3 28-4-1-32-4-62-7z"/><path d="m10126 14442c6-4 13-15 17-24 3-10 13-18 21-18 9 0 20-9 26-20 11-20 60-29 60-10 0 15-93 79-115 80-12 0-15-3-9-8z"/><path d="m10610 14426c0-9 5-16 10-16 6 0 10 4 10 9 0 6-4 13-10 16-5 3-10-1-10-9z"/><path d="m10875 14419c-4-6-4-13-1-16 8-8 36 5 36 17 0 13-27 13-35-1z"/><path d="m11015 14420c-8-13 5-13 25 0 13 8 13 10-2 10-9 0-20-4-23-10z"/><path d="m10701 14398c-46-13-26-32 34-33 24-1 48-4 51-8 11-11 52-8 60 4 11 18-37 49-76 48-19 0-50-5-69-11z"/><path d="m11531 14381c-8-5-11-16-8-26 9-23 46-16 65 13 14 21 13 22-14 22-16 0-35-4-43-9z"/><path d="m10315 14324c21-15 49-19 41-5-3 5-18 11-33 14-26 5-26 4-8-9z"/><path d="m11230 14320c-26-23-22-37 7-21 10 5 26 12 36 15 9 3 17 10 17 16 0 17-36 11-60-10z"/><path d="m11488 14318c9-9 15-9 24 0s7 12-12 12-21-3-12-12z"/><path d="m10338 14193c7-3 16-2 19 1 4 3-2 6-13 5-11 0-14-3-6-6z"/><path d="m11195 14170c-11-17 72-16 90 1 5 5-9 9-37 9-26 0-50-4-53-10z"/><path d="m11343 14145c-17-13-16-14 9-15 30 0 46 15 24 23-8 3-22-1-33-8z"/><path d="m6650 5700v-1590l225 2 226 3 56 105c31 58 93 168 138 245 46 77 92 156 103 175s51 89 89 155c187 322 263 468 387 750 25 55 96 274 110 337 60 274 78 365 100 518 13 96 29 243 35 325 12 160 15 523 5 549-6 14-80 16-740 16h-734z"/><path d="m8539 4994-34-35-3-402c-1-221 0-412 3-424 5-22 10-23 100-23 84 0 95 2 95 18 1 9 1 82 0 162 0 80 3 150 8 157 9 15 72 19 131 8 61-10 109-61 204-217l78-128h100c93 0 99 1 99 20 0 56-125 249-203 314-47 39-45 45 22 66 62 20 144 97 161 152 20 69 15 153-14 212-31 64-56 88-131 126l-59 30h-261-261zm500-132c52-26 72-60 73-121 0-60-22-93-82-119-47-20-293-30-315-12-12 10-15 38-15 135 0 67 3 125 7 128 3 4 72 7 152 7 117-1 153-4 180-18z"/><path d="m9999 4992c-14-20-35-62-47-92-27-75-246-631-277-703-35-84-31-88 78-85l91 3 15 40c8 22 22 59 32 83l18 42h195c222 0 199 10 245-100l27-65 91-3c74-2 92 0 96 13 4 8-18 75-47 147-61 151-72 177-96 233-10 22-21 51-25 65s-18 48-30 75c-12 28-46 111-75 185s-64 150-77 168c-24 32-25 32-106 32h-82zm118-194c6-7 20-40 31-73 11-34 25-72 31-85 40-99 71-195 67-207-5-11-32-13-143-11-155 3-151 0-120 83 37 95 90 243 98 273 11 34 20 40 36 20z"/><path d="m10965 5002c-19-26-20-45-23-459l-3-433h91c79 0 90 2 90 18v290c-1 236 1 272 14 272 9 0 23-12 33-27 9-16 67-104 128-198 61-93 137-212 170-262l60-93 120 3 120 2 3 428c3 510 7 487-92 487-63 0-64-1-75-31-7-21-11-140-11-330 0-240-3-299-13-299-7 0-112 149-232 330l-218 330h-71c-66-1-73-3-91-28z"/><path d="m12234 5003c-18-26-19-57-22-438-2-225 0-420 3-433 5-22 9-23 98-20l92 3 3 423c3 510 6 492-93 492-57 0-64-2-81-27z"/><path d="m13127 4997c-14-19-55-108-90-198-199-504-258-662-253-675 4-11 27-14 94-14h89l17 48c9 26 24 63 34 82l17 35 198 3 198 2 18-42c10-24 24-61 32-83l15-40 97-3c89-2 97-1 97 16s-90 247-269 686c-33 82-71 164-83 182-23 34-23 34-104 34s-82 0-107-33zm122-209c5-13 28-75 51-138 22-63 49-136 59-161 14-34 16-50 8-58-7-7-59-11-139-11-102 0-130 3-134 14-3 8 17 77 45 154 28 76 51 142 51 146 0 18 30 76 40 76 6 0 14-10 19-22z"/><path d="m14081 4987c-21-43-21-55-19-458l3-414 84-3c61-2 87 1 93 10 4 7 8 137 7 288-1 223 2 275 13 277 7 2 42-42 78-100 35-56 120-186 188-289l123-188h120c88 0 119 3 119 13 1 6 0 202 0 435-1 294-4 430-12 448-11 23-16 25-77 22-65-3-66-3-78-38-9-25-12-119-11-325 1-235-2-290-12-290-13 0-440 630-440 647 0 5-36 8-79 8h-79z"/><path d="m6923 3916c-93-30-143-95-143-186 0-104 47-151 207-208 44-16 93-36 108-46 36-24 58-80 50-124-14-73-110-131-190-116-39 7-125 58-125 74s-17 12-45-13l-27-23 40-36c96-87 278-89 359-6 63 65 79 147 44 224-25 55-69 86-176 123-141 50-175 79-175 152 0 77 63 129 154 129 61 0 87-9 126-46l25-23 28 25c35 30 30 39-44 79-61 33-152 42-216 21z"/><path d="m10517 3919c-232-55-351-318-246-545 92-197 368-265 557-137 103 70 155 174 155 313 0 63-6 100-22 142-27 71-106 160-170 192-82 42-188 55-274 35zm218-83c62-29 117-86 147-151 18-40 23-68 23-135 0-77-3-92-33-153-54-109-137-159-263-160-63-1-86 4-132 27-101 49-157 138-165 262-9 138 49 248 159 303 82 41 186 44 264 7z"/><path d="m7622 3638 3-273 28-57c48-97 134-143 255-136 124 7 203 68 237 181 12 39 15 109 15 304v253h-34-35l-3-262c-3-253-4-265-27-311-34-69-85-100-164-101-108-1-177 56-197 163-5 30-10 157-10 282v229h-36-35z"/><path d="m8590 3551v-361h40 40v164 163l103 6c113 6 155 17 206 55 46 34 64 82 59 157-5 76-33 119-97 149-39 17-69 21-198 24l-153 4zm312 276c44-19 68-60 68-118 0-34-6-47-34-74-40-38-69-45-182-45h-84v131 132l98-5c55-3 113-12 134-21z"/><path d="m9430 3551v-361h35 35v164 163l111 6c95 5 120 10 168 34 44 22 61 37 79 73 48 95 16 204-73 250-45 23-62 25-202 28l-153 4zm313 274c93-44 89-172-6-216-32-14-65-19-139-19h-98v123c0 68 3 127 8 131 14 15 195 0 235-19z"/><path d="m11380 3551v-361h35 35v165 166l67-3 67-3 95-162 96-163h44c30 0 42 4 38 13-3 6-48 82-101 167l-96 155 42 14c93 30 138 91 138 186 0 72-32 123-95 155-46 23-63 25-207 28l-158 4zm317 275c98-50 97-172 0-217-32-14-66-19-144-19h-103v123c0 68 3 127 8 131 13 14 206 0 239-18z"/><path d="m12140 3880v-29l123-3 122-3 3-327 2-328h35 35v330 330h120 120v30 30h-280-280z"/><path d="m13060 3550v-360h35 35v360 360h-35-35z"/><path d="m13480 3903c0-4 60-166 133-358l134-350 40-3 41-3 20 53c11 29 72 190 136 356 64 167 116 306 116 308s-17 4-37 4h-38l-115-310c-63-170-117-310-120-310s-57 138-120 308l-115 307-38 3c-20 2-37 0-37-5z"/><path d="m14450 3550v-360h230 230v30 30h-195-195v140 140h175 175v35 35h-175-175v125 125h190 190v30 30h-225-225z"/><path d="m6980 2975c-188-53-300-230-269-427 20-130 92-227 207-281 61-29 76-32 162-32 76 1 107 6 155 24 152 61 248 241 218 414-22 130-85 217-197 272-88 44-187 54-276 30zm239-86c106-53 161-151 161-285 0-124-63-230-167-280-78-39-185-39-259-1-68 34-112 80-143 147-34 74-36 201-4 271 29 65 89 128 148 155 78 37 182 34 264-7z"/><path d="m8560 2975c-160-45-259-171-268-341-10-179 64-303 223-376 94-43 303-28 393 28 21 14 22 19 22 174v160h-120-120v-30-30h85 85v-110-109l-29-16c-16-8-61-19-100-26-121-18-216 13-289 96-128 146-90 395 75 492 34 20 63 27 118 31 97 6 134-2 194-42l50-34 22 24c21 23 21 25 5 43-57 63-235 97-346 66z"/><path d="m13610 2975c-107-30-191-103-239-205-23-48-26-68-26-160 0-99 2-110 32-171 39-79 102-140 181-177 50-24 70-27 157-27s107 3 157 27c80 37 149 105 184 181 26 56 29 72 29 167 0 99-2 110-33 172-40 82-111 149-190 178-75 28-181 34-252 15zm226-74c108-49 176-159 177-285 1-190-121-320-298-319-120 0-211 56-267 163-27 52-37 180-19 246 24 88 98 171 178 200 57 20 180 17 229-5z"/><path d="m7660 2611v-361h35 35v165 165h65 64l98-165 98-164 43-1c23 0 42 2 42 5s-45 77-100 166-100 162-100 163c0 2 19 9 43 16 60 18 92 44 116 93 46 95 14 202-74 247-45 23-62 25-207 28l-158 4zm316 276c66-34 91-104 59-166-26-52-80-71-202-71h-103v123c0 68 3 127 8 131 12 14 206 0 238-17z"/><path d="m9385 2938c-7-18-75-175-150-348s-139-321-142-327c-4-9 7-13 35-13h40l38 95 39 95 189-2 188-3 37-90 38-90 41-3 42-3-25 58c-14 32-83 193-154 358l-128 300-37 3c-33 3-38 0-51-30zm134-255c39-94 71-174 71-177s-70-6-155-6c-103 0-155 4-155 11 0 9 135 342 148 363 7 12 10 5 91-191z"/><path d="m9940 2611v-361h35 35l2 308 3 308 209-308 208-308h49 49v360 360h-40-40l-2-302-3-303-205 300-206 300-47 3-47 3z"/><path d="m10770 2610v-360h35 35v360 360h-35-35z"/><path d="m11030 2940v-30h205c113 0 205-3 205-6s-93-137-207-297c-142-201-208-302-211-324l-4-33h261 261v30 30h-210c-115 0-210 2-210 4 0 3 95 138 210 302 154 218 210 305 210 326v28h-255-255z"/><path d="m11947 2963c-4-7-287-658-304-700-4-9 7-13 35-13h40l38 95 39 95 188-2 188-3 38-90 37-90 42-3 42-3-25 58c-14 32-83 193-154 358l-128 300-36 3c-19 2-37-1-40-5zm118-271c41-101 75-185 75-187 0-3-70-5-155-5-103 0-155 4-155 11 0 9 135 342 147 362 3 5 7 7 9 5 1-2 37-86 79-186z"/><path d="m12340 2940v-29l123-3 122-3 3-327 2-328h35 35v330 330h120 120v30 30h-280-280z"/><path d="m13060 2610v-360h35 35v360 360h-35-35z"/><path d="m14290 2610v-360h40 40l2 306 3 306 206-304 206-303 47-3 46-3v360 361h-35-35l-2-304-3-305-208 305-209 304h-49-49z"/></g></svg>